<?xml version="1.0" standalone="no"?>
<!DOCTYPE svg PUBLIC "-//W3C//DTD SVG 20010904//EN"
 "http://www.w3.org/TR/2001/REC-SVG-20010904/DTD/svg10.dtd">
<svg version="1.0" xmlns="http://www.w3.org/2000/svg"
 width="1480.000000pt" height="1322.000000pt" viewBox="0 0 1480.000000 1322.000000"
 preserveAspectRatio="xMidYMid meet">
<metadata>
Created by potrace 1.16, written by Peter Selinger 2001-2019
</metadata>
<g transform="translate(0.000000,1322.000000) scale(0.100000,-0.100000)"
fill="#000000" stroke="none">
<path d="M0 6610 l0 -6610 7400 0 7400 0 0 6610 0 6610 -7400 0 -7400 0 0
-6610z m7576 5910 c99 -6 244 -17 324 -26 1693 -178 3235 -1056 4242 -2414
155 -209 429 -642 415 -656 -14 -14 -324 114 -339 140 -4 7 -42 55 -85 108
-73 91 -156 199 -178 236 -5 9 -29 46 -52 83 -24 36 -43 69 -43 73 0 4 -16 31
-35 61 -22 35 -42 55 -54 55 -25 0 -35 -28 -16 -46 14 -14 19 -28 17 -46 -1
-3 5 -12 13 -18 8 -7 15 -19 15 -27 0 -7 6 -24 14 -36 20 -31 53 -200 51 -261
-1 -28 -8 -67 -16 -87 -16 -39 -39 -72 -46 -65 -3 2 -19 -2 -36 -9 -44 -18
-168 -29 -323 -28 l-132 1 9 -30 c4 -17 16 -50 25 -73 l16 -42 139 -17 c137
-16 292 -50 316 -68 7 -5 17 -7 23 -3 5 3 10 2 10 -3 0 -5 13 -15 29 -21 15
-7 55 -38 88 -69 51 -48 70 -77 125 -192 36 -74 75 -160 86 -190 11 -30 41
-108 66 -173 25 -65 46 -126 46 -136 0 -29 45 -33 70 -6 23 25 24 16 -18 145
-9 28 -11 35 -21 95 -23 130 -27 174 -24 275 5 164 2 154 62 196 45 30 70 39
135 49 46 7 86 8 92 3 6 -4 19 -6 27 -2 12 4 31 -23 80 -123 265 -529 459
-1153 546 -1758 43 -295 54 -459 55 -805 1 -288 -9 -559 -19 -548 -3 3 -12
143 -20 316 -2 57 -10 115 -17 130 l-13 27 -173 3 c-155 2 -172 4 -173 20 -2
50 -8 67 -29 84 -12 10 -32 20 -44 22 -11 2 -55 11 -96 20 -70 15 -182 30
-296 41 -48 4 -76 8 -179 21 -78 11 -94 12 -180 19 -44 4 -118 9 -165 13 -47
4 -126 6 -175 4 -90 -3 -90 -3 -112 -36 -16 -26 -23 -55 -27 -127 -4 -52 -8
-105 -11 -119 -2 -14 -9 -81 -15 -150 -6 -69 -13 -152 -16 -184 -3 -32 -12
-69 -20 -82 -10 -15 -13 -34 -9 -57 7 -35 26 -48 75 -52 8 -1 22 -4 30 -8 16
-6 99 -22 165 -32 89 -12 162 -27 174 -34 10 -6 10 -21 2 -67 -5 -32 -10 -81
-10 -107 0 -26 -3 -52 -6 -57 -3 -5 -7 -33 -9 -62 -2 -29 -6 -73 -10 -98 -3
-25 -8 -69 -11 -99 -6 -59 -5 -58 -163 -226 -47 -49 -107 -118 -134 -153 -28
-34 -53 -62 -56 -62 -4 0 -7 24 -8 53 0 28 -3 97 -6 152 -4 55 -8 201 -9 325
-3 230 -6 250 -43 250 -8 0 -18 5 -21 10 -4 6 -15 8 -25 5 -10 -3 -60 -8 -112
-10 -51 -3 -140 -7 -198 -10 -165 -9 -626 -8 -643 2 -4 3 -79 6 -166 9 l-159
4 -1 -77 c0 -43 -4 -139 -7 -213 -4 -74 -8 -208 -8 -297 l-1 -162 34 -30 c19
-17 43 -31 53 -31 10 0 18 -4 18 -9 0 -20 232 -90 312 -94 20 -1 40 -6 44 -10
8 -8 8 -61 -2 -194 -6 -72 -9 -83 -25 -83 -11 0 -19 -4 -19 -10 0 -5 -8 -10
-18 -10 -10 0 -28 -7 -40 -16 -12 -8 -22 -13 -22 -9 0 3 -12 -3 -27 -12 -15
-10 -27 -16 -28 -14 0 6 -71 -18 -103 -35 -15 -8 -33 -14 -41 -14 -8 0 -22 -6
-30 -14 -9 -8 -43 -24 -76 -35 -32 -12 -63 -28 -68 -36 -4 -9 -12 -13 -17 -10
-6 3 -27 -6 -47 -20 -21 -14 -41 -25 -46 -25 -4 0 -24 -11 -45 -24 -20 -12
-75 -40 -122 -60 -47 -21 -107 -51 -135 -68 -66 -41 -129 -82 -135 -88 -3 -3
-17 -11 -33 -19 -30 -16 -97 -80 -97 -93 0 -4 -5 -8 -11 -8 -9 0 -52 -41 -116
-113 -13 -14 -23 -30 -23 -36 0 -6 -4 -11 -9 -11 -9 0 -61 -110 -61 -129 0 -6
-4 -11 -9 -11 -5 0 -15 -17 -21 -38 -6 -20 -15 -46 -20 -57 -4 -11 -15 -40
-23 -65 -8 -25 -20 -61 -27 -80 -7 -19 -14 -41 -16 -47 -3 -11 -99 41 -141 77
-29 24 -193 110 -210 110 -7 0 -13 4 -13 8 0 8 -80 52 -94 52 -3 0 -25 12 -48
28 -40 27 -186 107 -283 157 -27 14 -68 37 -90 50 -22 14 -66 39 -99 55 -68
33 -61 37 -143 -71 -41 -55 -145 -180 -258 -312 -13 -16 -24 -31 -25 -35 -1
-4 -9 -16 -19 -27 -10 -11 -46 -60 -81 -109 -51 -71 -64 -98 -65 -129 -1 -21
2 -40 6 -42 18 -12 -37 -135 -60 -135 -5 0 -12 -11 -15 -25 -4 -14 -11 -25
-16 -25 -15 0 -57 -43 -64 -66 -4 -12 -2 -52 4 -88 6 -36 12 -78 14 -94 8 -60
58 -329 66 -357 5 -16 11 -46 14 -65 8 -62 19 -105 29 -118 5 -7 7 -15 4 -18
-3 -4 3 -29 13 -58 10 -28 21 -64 23 -81 3 -16 17 -78 31 -137 l27 -108 -28
-37 c-15 -21 -36 -47 -46 -58 -18 -19 -231 -300 -269 -355 l-18 -25 -17 25
c-39 55 -252 336 -270 355 -10 11 -31 37 -46 58 l-28 37 27 108 c14 59 28 121
31 137 2 17 13 53 23 81 10 29 16 54 13 58 -3 3 -1 11 4 18 10 13 21 56 29
118 3 19 9 49 14 65 8 28 58 297 66 357 2 16 8 58 14 94 6 36 8 76 4 88 -7 23
-49 66 -64 66 -5 0 -12 11 -16 25 -3 14 -10 25 -15 25 -23 0 -78 123 -60 135
4 2 7 21 6 42 -1 31 -14 58 -65 129 -35 49 -71 98 -81 109 -10 11 -18 23 -19
27 -1 4 -12 19 -25 35 -113 132 -217 257 -258 312 -82 108 -75 104 -143 71
-33 -16 -77 -41 -99 -55 -22 -13 -62 -36 -90 -50 -97 -50 -243 -130 -283 -157
-23 -16 -45 -28 -48 -28 -14 0 -94 -44 -94 -52 0 -4 -6 -8 -13 -8 -17 0 -181
-86 -210 -110 -42 -36 -138 -88 -141 -77 -2 6 -9 28 -16 47 -7 19 -19 55 -27
80 -8 25 -19 54 -23 65 -5 11 -14 37 -20 57 -6 21 -16 38 -21 38 -5 0 -9 5 -9
11 0 19 -52 129 -61 129 -5 0 -9 5 -9 11 0 6 -10 22 -22 36 -65 72 -108 113
-117 113 -6 0 -11 4 -11 8 0 13 -67 77 -97 93 -16 8 -30 16 -33 19 -6 6 -69
47 -135 88 -27 17 -88 47 -135 68 -47 20 -102 48 -122 60 -21 13 -41 24 -45
24 -5 0 -25 11 -46 25 -20 14 -41 23 -47 20 -5 -3 -13 1 -17 10 -5 8 -36 24
-68 36 -33 11 -67 27 -76 35 -8 8 -22 14 -30 14 -8 0 -26 6 -41 14 -28 15
-100 40 -108 38 -3 -1 -15 6 -27 14 -13 8 -23 12 -23 9 0 -4 -10 1 -22 9 -12
9 -30 16 -40 16 -10 0 -18 5 -18 10 0 6 -8 10 -19 10 -16 0 -19 11 -25 83 -10
133 -10 186 -2 194 4 4 24 9 44 10 80 4 312 74 312 94 0 5 8 9 18 9 10 0 34
14 53 31 l34 30 -1 162 c0 89 -4 223 -8 297 -3 74 -7 170 -7 213 l-1 77 -159
-4 c-87 -3 -162 -6 -166 -9 -17 -10 -478 -11 -643 -2 -58 3 -147 7 -198 10
-52 2 -102 7 -112 10 -10 3 -21 1 -25 -5 -3 -5 -13 -10 -21 -10 -37 0 -40 -20
-43 -250 -1 -124 -5 -270 -9 -325 -3 -55 -6 -124 -6 -152 -1 -29 -4 -53 -8
-53 -3 0 -28 28 -56 63 -27 34 -87 103 -134 152 -158 168 -157 167 -163 226
-3 30 -8 74 -11 99 -4 25 -8 69 -10 98 -2 29 -6 57 -9 62 -3 5 -6 31 -6 57 0
26 -5 75 -10 107 -8 46 -8 61 2 67 12 7 85 22 174 34 66 10 149 26 165 32 8 4
22 7 30 8 49 4 68 17 75 52 4 23 1 42 -9 57 -8 13 -17 50 -20 82 -3 32 -10
115 -16 184 -6 69 -13 136 -15 150 -3 14 -7 67 -11 119 -4 72 -11 101 -27 127
-22 33 -22 33 -112 36 -49 2 -128 0 -175 -4 -47 -4 -121 -9 -165 -13 -86 -7
-102 -8 -180 -19 -103 -13 -131 -17 -179 -21 -114 -11 -226 -26 -296 -41 -41
-9 -85 -18 -96 -20 -12 -2 -32 -12 -44 -22 -21 -17 -27 -34 -29 -84 -1 -16
-18 -18 -173 -20 l-173 -3 -13 -27 c-12 -25 -18 -95 -23 -248 l-2 -65 -8 85
c-11 127 -10 453 1 640 65 1039 391 2023 956 2883 57 87 109 160 116 162 7 3
51 10 98 16 47 5 117 15 155 20 39 6 99 12 135 14 36 1 85 8 109 15 24 6 89
12 144 13 l100 1 34 -40 c19 -21 38 -44 43 -50 12 -17 16 -57 5 -73 -4 -8 -8
-38 -7 -67 1 -29 -3 -56 -8 -59 -6 -4 -8 -10 -5 -15 3 -5 -3 -35 -14 -67 -10
-32 -22 -74 -26 -93 -4 -19 -10 -39 -13 -45 -4 -5 -7 -17 -9 -25 -1 -8 -6 -16
-12 -18 -5 -2 -7 -10 -4 -18 3 -8 1 -20 -5 -27 -5 -6 -13 -28 -17 -47 -11 -57
-120 -385 -158 -480 -6 -14 -10 -28 -9 -32 2 -9 -64 -186 -78 -210 -5 -10 -10
-24 -10 -31 0 -8 -13 -46 -29 -86 -17 -39 -28 -71 -26 -71 1 0 -10 -35 -27
-77 -16 -43 -34 -91 -40 -108 -5 -16 -16 -43 -23 -60 -21 -50 -55 -154 -55
-170 0 -8 -4 -15 -9 -15 -4 0 -11 -16 -14 -34 -3 -19 -12 -50 -20 -68 -8 -18
-25 -67 -38 -108 -12 -41 -23 -77 -24 -80 -1 -3 -4 -12 -8 -20 -3 -8 -20 -67
-37 -130 -28 -106 -35 -130 -55 -185 -16 -44 -14 -61 9 -63 26 -2 51 41 81
135 9 28 25 63 35 76 11 13 17 27 14 29 -2 3 2 11 11 18 8 7 15 21 15 31 0 11
11 37 24 58 14 21 23 41 20 44 -3 3 6 23 19 44 14 22 30 56 35 77 14 50 35 96
44 96 5 0 8 8 8 19 0 22 24 71 40 81 7 4 13 20 15 36 1 16 18 65 38 109 19 44
51 118 71 165 21 47 45 103 55 125 10 22 29 67 42 100 13 33 34 80 46 104 13
24 23 48 23 53 0 4 9 30 21 56 12 26 25 56 29 67 34 82 115 245 122 245 4 0 8
7 8 16 0 9 11 37 24 63 13 25 29 61 36 79 7 17 16 32 21 32 5 0 9 6 9 14 0 19
50 106 61 106 4 0 6 7 2 16 -4 10 1 22 12 30 10 8 16 16 13 20 -9 8 125 267
161 313 17 21 31 42 31 46 0 14 66 102 99 132 20 17 60 55 90 83 30 28 75 63
100 78 25 14 54 33 63 42 21 20 101 48 148 53 39 5 159 31 235 52 28 7 66 16
85 19 19 3 60 12 90 20 50 12 109 24 135 27 6 1 17 5 25 9 8 4 38 11 65 14 28
4 66 11 85 16 19 5 51 11 70 14 19 3 46 7 60 10 14 3 47 8 74 11 27 2 56 7 65
9 9 3 36 7 61 10 25 4 56 8 70 10 14 3 48 7 75 11 28 3 64 8 80 10 17 2 66 9
110 15 44 6 107 15 140 20 33 6 78 12 100 14 22 3 61 9 87 15 26 6 54 8 63 5
8 -4 21 -2 28 3 6 5 28 10 47 11 19 2 59 8 88 13 30 6 65 8 79 4 14 -3 30 -1
37 4 7 6 36 13 66 16 62 6 68 10 54 33 -9 13 -24 17 -65 15 -30 -1 -67 -5 -84
-8 -16 -4 -57 -8 -90 -11 -33 -2 -78 -6 -100 -8 -22 -2 -65 -7 -95 -10 -30 -3
-75 -8 -101 -12 -25 -3 -70 -7 -100 -9 -173 -14 -276 -25 -319 -35 -19 -4 -62
-11 -95 -13 -33 -3 -82 -11 -109 -17 -27 -6 -75 -13 -105 -15 -31 -2 -72 -6
-91 -8 -19 -3 -69 -8 -110 -12 -41 -4 -79 -12 -85 -19 -6 -8 -25 -11 -45 -9
-19 3 -62 0 -95 -6 -110 -20 -276 -40 -288 -35 -7 2 -35 0 -62 -5 -27 -5 -56
-6 -65 -1 -8 5 -23 4 -35 -3 -24 -13 -243 -18 -251 -6 -3 5 -13 9 -22 9 -25 0
-72 47 -73 73 -4 53 5 116 41 302 49 258 77 380 94 413 9 18 12 32 7 32 -12 0
-39 -42 -47 -74 -3 -14 -10 -26 -15 -26 -5 0 -8 -3 -7 -7 0 -5 -2 -17 -6 -28
-32 -89 -48 -132 -55 -145 -4 -8 -14 -28 -23 -45 -8 -16 -32 -66 -53 -110 -22
-44 -61 -117 -87 -163 -26 -46 -48 -86 -48 -88 0 -3 -20 -35 -45 -71 -52 -78
-148 -180 -178 -189 -12 -3 -29 -13 -38 -21 -29 -25 -92 -53 -119 -53 -15 0
-30 -3 -34 -7 -4 -5 -44 -13 -89 -20 -45 -7 -95 -15 -112 -17 -31 -5 -92 -14
-160 -21 -58 -7 -99 -16 -110 -25 -5 -4 -32 -12 -60 -18 -27 -6 -70 -16 -95
-22 -87 -21 -101 -21 -91 -2 16 29 213 271 307 377 895 1009 2099 1689 3434
1939 472 89 988 123 1456 96z m-4846 -5945 c0 -16 4 -48 9 -70 8 -33 24 -222
23 -260 -3 -120 -5 -155 -10 -155 -17 0 -210 -32 -222 -37 -8 -3 -22 -7 -30
-9 -147 -26 -150 -27 -150 -49 0 -13 7 -58 15 -101 16 -90 21 -116 30 -194 4
-30 9 -62 11 -70 13 -61 33 -160 38 -185 2 -16 11 -61 20 -98 13 -62 22 -81
51 -113 6 -6 30 -35 55 -64 25 -29 53 -60 63 -69 9 -8 17 -18 17 -21 0 -3 23
-30 51 -60 49 -51 130 -145 203 -233 17 -21 43 -52 59 -69 15 -17 31 -37 36
-45 6 -12 13 -10 37 13 27 27 29 35 31 117 1 49 5 137 9 195 11 172 12 187 13
407 l1 210 98 -2 c53 -1 156 -6 227 -12 149 -12 534 -5 705 14 l65 7 2 -74 c9
-456 7 -506 -24 -494 -8 4 -21 2 -27 -2 -6 -5 -23 -12 -38 -16 -15 -3 -40 -11
-55 -18 -15 -6 -35 -13 -43 -14 -143 -22 -172 -28 -177 -41 -4 -11 -8 -11 -20
-1 -12 10 -18 9 -28 -5 -7 -9 -17 -17 -23 -17 -7 0 -19 -17 -28 -37 -17 -38
-18 -77 -9 -277 4 -81 27 -146 52 -146 7 0 16 -6 20 -14 11 -18 125 -74 141
-68 6 2 12 -1 12 -6 0 -5 21 -17 48 -27 26 -10 58 -26 72 -35 45 -31 242 -131
248 -126 2 3 17 -3 32 -14 16 -11 35 -20 44 -20 9 0 16 -4 16 -8 0 -4 42 -27
93 -51 50 -24 108 -51 127 -60 19 -9 71 -39 115 -67 103 -65 101 -64 126 -69
37 -7 127 -85 189 -163 33 -41 60 -81 60 -88 0 -7 7 -17 16 -22 8 -5 16 -15
17 -23 2 -8 12 -39 24 -69 39 -99 62 -227 63 -350 1 -149 1 -150 -41 -249 -11
-24 -17 -46 -14 -49 3 -3 -4 -15 -14 -26 -11 -12 -26 -34 -35 -50 -26 -51
-109 -138 -169 -177 -49 -31 -63 -36 -97 -32 -21 3 -47 2 -57 -1 -10 -4 -45
-9 -78 -10 -33 -2 -76 -8 -95 -14 -19 -7 -53 -14 -75 -16 -81 -8 -220 -31
-233 -40 -4 -2 -34 -8 -67 -11 -61 -8 -90 -12 -90 -15 0 -1 -9 -3 -20 -4 -11
-2 -56 -10 -100 -19 -44 -9 -126 -24 -182 -33 l-101 -16 -49 52 c-26 29 -102
108 -168 177 -110 113 -153 159 -345 366 -36 39 -80 86 -97 105 -18 19 -33 36
-33 39 0 3 -31 36 -70 74 -38 37 -70 72 -70 78 0 6 -4 11 -9 11 -5 0 -12 8
-15 18 -4 10 -40 53 -81 95 -41 43 -75 81 -75 86 0 4 -18 24 -40 44 -22 19
-40 38 -40 41 0 12 -115 142 -177 202 -24 22 -43 46 -43 52 0 5 -15 26 -32 44
-33 34 -74 84 -120 143 -13 16 -30 37 -38 45 -50 52 -106 119 -123 148 -10 17
-23 32 -27 32 -5 0 -11 8 -15 18 -3 9 -24 38 -48 64 -23 25 -67 76 -97 112
-30 36 -60 66 -67 66 -7 0 -13 8 -13 19 0 10 -7 24 -15 31 -8 7 -15 20 -15 29
-1 16 -50 77 -130 160 -25 25 -61 66 -80 91 -19 25 -46 57 -60 71 -14 15 -43
48 -65 74 -22 26 -48 56 -57 66 -10 10 -18 23 -18 28 0 5 -7 14 -15 21 -37 31
-48 77 -48 213 1 217 12 715 20 822 4 55 6 103 5 107 -1 3 6 12 14 19 12 10
25 10 57 2 23 -6 68 -8 100 -6 31 3 57 4 57 2 0 -2 3 -137 5 -299 9 -535 18
-706 39 -749 9 -19 20 -24 59 -26 73 -4 78 10 71 176 -6 122 -8 344 -3 344 4
0 7 59 14 250 13 390 18 459 40 485 7 8 10 20 8 27 -2 6 1 14 6 18 16 9 113
24 205 30 45 4 99 8 121 11 22 2 65 6 95 9 103 8 213 17 252 19 21 2 40 5 42
7 3 2 39 4 80 4 l76 0 0 -30z m9216 21 c23 -2 77 -7 120 -11 150 -12 189 -15
229 -19 22 -3 76 -7 121 -11 92 -6 189 -21 205 -30 5 -4 8 -12 6 -18 -2 -7 1
-19 8 -27 22 -26 27 -95 40 -485 7 -191 10 -250 14 -250 5 0 3 -222 -3 -344
-7 -166 -2 -180 71 -176 39 2 50 7 59 26 21 43 30 214 39 749 2 162 5 297 5
299 0 2 26 1 58 -2 31 -2 76 0 99 6 41 11 67 3 69 -21 13 -146 26 -617 27
-929 0 -136 -11 -182 -48 -213 -8 -7 -15 -16 -15 -21 0 -5 -8 -18 -17 -28 -10
-10 -36 -40 -58 -66 -22 -26 -51 -59 -65 -74 -14 -14 -41 -46 -60 -71 -19 -25
-55 -66 -80 -91 -80 -83 -129 -144 -130 -160 0 -9 -7 -22 -15 -29 -8 -7 -15
-21 -15 -31 0 -11 -6 -19 -13 -19 -7 0 -37 -30 -67 -66 -30 -36 -74 -87 -97
-112 -24 -26 -45 -55 -48 -64 -4 -10 -10 -18 -15 -18 -4 0 -17 -15 -27 -32
-17 -29 -73 -96 -123 -148 -8 -8 -25 -29 -38 -45 -46 -59 -87 -109 -119 -143
-18 -18 -33 -39 -33 -44 0 -6 -19 -30 -43 -52 -62 -60 -177 -190 -177 -202 0
-3 -18 -22 -40 -41 -22 -20 -40 -40 -40 -44 0 -5 -34 -43 -75 -86 -41 -42 -77
-85 -81 -95 -3 -10 -10 -18 -15 -18 -5 0 -9 -5 -9 -11 0 -6 -31 -41 -70 -78
-38 -38 -70 -71 -70 -74 0 -3 -15 -20 -32 -39 -18 -19 -62 -66 -98 -105 -192
-207 -235 -253 -345 -366 -66 -69 -142 -148 -168 -177 l-49 -52 -101 16 c-56
9 -138 24 -182 33 -44 9 -89 17 -100 19 -11 1 -20 3 -20 4 0 3 -29 7 -90 15
-33 3 -63 9 -67 11 -13 9 -152 32 -233 40 -22 2 -56 9 -75 16 -19 6 -62 12
-95 14 -33 1 -68 6 -78 10 -10 3 -36 4 -57 1 -34 -4 -48 1 -97 32 -60 39 -143
126 -169 177 -9 16 -24 38 -35 50 -10 11 -17 23 -14 26 3 3 -3 25 -14 49 -42
99 -42 100 -41 249 1 123 24 251 63 350 12 30 22 61 24 69 1 8 9 18 17 23 9 5
16 15 16 22 0 7 27 47 60 88 62 78 152 156 189 163 25 5 23 4 126 69 44 28 96
58 115 67 19 9 77 36 128 60 50 24 92 47 92 51 0 4 7 8 16 8 9 0 28 9 44 20
15 11 30 17 32 14 6 -5 203 95 248 126 14 9 46 25 73 35 26 10 47 22 47 27 0
5 6 8 12 6 16 -6 130 50 141 68 4 8 13 14 20 14 25 0 48 65 52 146 9 200 8
239 -9 277 -9 20 -21 37 -28 37 -6 0 -16 8 -23 17 -10 14 -16 15 -28 5 -12
-10 -16 -10 -20 1 -5 13 -34 19 -177 41 -8 1 -28 8 -43 14 -15 7 -40 15 -55
18 -15 4 -32 11 -38 16 -6 4 -19 6 -27 2 -31 -12 -33 38 -24 494 l2 74 65 -7
c171 -19 556 -26 705 -14 72 6 174 11 228 12 l97 2 1 -210 c1 -220 2 -235 13
-407 4 -58 8 -146 9 -195 2 -82 4 -90 31 -117 24 -23 31 -25 37 -13 5 8 21 28
36 45 16 17 42 48 59 69 73 88 154 182 203 233 28 30 51 57 51 60 0 3 8 13 18
21 9 9 37 40 62 69 25 29 50 58 55 64 29 32 38 51 51 113 9 37 18 82 20 98 5
25 25 124 38 185 2 8 7 40 11 70 9 78 14 104 30 194 8 43 15 88 15 101 0 22
-3 23 -150 49 -8 2 -22 6 -30 9 -12 5 -205 37 -222 37 -5 0 -7 35 -10 155 -1
38 15 227 23 260 5 22 9 54 9 70 l0 31 78 -3 c42 -2 96 -5 118 -7z m1045
-1887 c-305 -900 -819 -1715 -1492 -2364 -211 -203 -499 -447 -499 -421 0 23
-17 29 -104 31 -44 2 -146 6 -226 11 -80 4 -176 8 -215 8 -38 1 -72 4 -75 8
-3 4 -48 10 -100 13 -52 4 -111 9 -130 11 -19 2 -63 6 -98 8 -34 3 -70 7 -80
10 -25 8 -135 17 -239 21 -50 1 -96 6 -102 9 -5 4 -36 8 -68 10 -90 6 -208 18
-212 22 -2 2 -5 15 -7 29 -1 15 -11 65 -22 113 -11 48 -30 131 -43 185 -12 53
-25 97 -29 97 -5 0 -6 9 -3 20 3 11 2 28 -2 37 -5 10 -9 23 -9 28 -2 14 -26
126 -33 150 -3 13 7 5 28 -20 56 -67 150 -155 203 -189 91 -58 101 -62 141
-60 23 1 47 -5 57 -13 9 -8 49 -19 88 -24 39 -5 75 -11 79 -14 5 -2 39 -7 77
-10 65 -5 187 -24 299 -46 89 -18 219 -40 255 -44 51 -6 116 -13 198 -21 39
-3 72 -11 72 -16 0 -13 93 -4 98 10 2 7 10 12 18 12 8 0 14 4 14 9 0 5 12 22
28 38 48 51 102 112 102 117 0 2 26 31 58 63 31 32 85 91 119 130 34 40 77 87
95 106 47 47 152 168 157 180 2 6 16 21 30 34 14 12 31 27 36 32 30 26 135
142 160 176 16 22 35 44 42 48 7 4 13 15 13 22 0 8 6 15 14 15 7 0 22 12 32
28 9 15 26 34 36 43 10 9 18 21 18 27 0 6 33 44 73 84 39 40 94 98 120 128 27
30 64 71 83 91 19 19 34 43 34 52 0 10 11 23 25 29 14 6 25 15 25 20 0 4 9 17
20 28 11 11 20 27 20 35 0 8 6 15 14 15 11 0 86 80 86 92 0 2 27 33 60 68 33
36 60 71 60 78 0 6 4 12 9 12 5 0 28 26 52 58 24 31 47 59 50 62 5 4 149 174
297 349 20 24 38 50 40 57 2 8 9 14 16 14 6 0 19 12 28 28 9 15 31 44 50 64
18 21 49 56 68 77 19 22 36 39 37 37 2 -1 -19 -68 -46 -147z m-11443 33 c19
-20 41 -49 50 -64 9 -16 22 -28 28 -28 7 0 14 -6 16 -14 2 -7 20 -33 40 -57
148 -175 292 -345 297 -349 3 -3 26 -31 50 -62 24 -32 47 -58 52 -58 5 0 9 -6
9 -12 0 -7 27 -42 60 -78 33 -35 60 -66 60 -68 0 -12 75 -92 86 -92 8 0 14 -7
14 -15 0 -8 9 -24 20 -35 11 -11 20 -24 20 -28 0 -5 11 -14 25 -20 14 -6 25
-19 25 -29 0 -9 15 -33 34 -52 19 -20 56 -61 83 -91 26 -30 81 -88 121 -128
39 -40 72 -78 72 -84 0 -6 8 -18 18 -27 10 -9 27 -28 36 -43 10 -16 25 -28 32
-28 8 0 14 -7 14 -15 0 -7 6 -18 13 -22 7 -4 26 -26 42 -48 25 -34 130 -150
160 -176 6 -5 22 -20 36 -32 14 -13 28 -28 30 -34 5 -12 110 -133 157 -180 18
-19 61 -66 95 -106 34 -39 88 -98 119 -130 32 -32 58 -61 58 -63 0 -5 54 -66
103 -117 15 -16 27 -33 27 -38 0 -5 6 -9 14 -9 8 0 16 -5 18 -12 5 -14 98 -23
98 -10 0 5 33 13 73 16 81 8 146 15 197 21 36 4 166 26 255 44 112 22 234 41
299 46 38 3 72 8 77 10 4 3 40 9 79 14 39 5 79 16 88 24 10 8 34 14 57 13 40
-2 50 2 141 60 53 34 147 122 203 189 21 25 31 33 28 20 -7 -24 -31 -136 -33
-150 0 -5 -4 -18 -9 -28 -4 -9 -5 -26 -2 -37 3 -11 2 -20 -3 -20 -4 0 -17 -44
-29 -97 -13 -54 -32 -137 -43 -185 -11 -48 -21 -98 -22 -113 -2 -14 -5 -27 -7
-29 -4 -4 -122 -16 -212 -22 -32 -2 -63 -6 -68 -10 -6 -3 -52 -8 -102 -9 -104
-4 -214 -13 -239 -21 -10 -3 -46 -7 -80 -10 -35 -2 -79 -6 -98 -8 -19 -2 -78
-7 -130 -11 -52 -3 -97 -9 -100 -13 -3 -4 -36 -7 -75 -8 -38 0 -135 -4 -215
-8 -80 -5 -182 -9 -227 -11 -46 -1 -89 -7 -96 -14 -11 -9 -40 11 -138 92 -846
702 -1480 1619 -1830 2645 -27 79 -49 147 -49 150 1 4 11 -6 23 -21 12 -16 37
-45 55 -65z"/>
<path d="M9982 11781 c-7 -4 12 -46 54 -118 35 -62 64 -116 64 -121 0 -5 14
-35 30 -66 17 -31 28 -56 25 -56 -4 0 1 -10 9 -22 9 -12 16 -30 16 -40 0 -10
4 -18 10 -18 5 0 14 -19 20 -42 6 -24 15 -51 20 -60 6 -10 10 -24 10 -31 0 -8
6 -27 14 -43 8 -16 17 -56 20 -89 2 -33 8 -76 11 -95 6 -31 3 -40 -23 -68 -24
-26 -35 -31 -63 -27 -19 2 -56 7 -84 10 -87 12 -129 16 -161 19 -17 2 -35 5
-40 8 -5 3 -38 6 -74 7 -36 2 -78 5 -95 7 -60 8 -132 14 -215 19 -47 3 -85 5
-85 6 0 1 -11 3 -25 4 -14 1 -68 7 -120 13 -204 24 -235 25 -249 8 -8 -9 -20
-16 -27 -16 -15 0 -17 -12 -8 -46 4 -17 12 -20 47 -18 23 1 69 -2 102 -7 77
-12 153 -20 184 -19 13 0 30 -5 37 -11 8 -6 26 -9 40 -6 15 2 41 1 58 -5 17
-5 64 -11 104 -13 40 -2 90 -9 112 -15 21 -6 42 -10 47 -9 11 3 78 -9 128 -22
22 -6 62 -13 90 -15 64 -4 195 -42 310 -89 83 -33 97 -43 179 -128 83 -85 131
-142 181 -213 11 -15 27 -36 37 -45 9 -9 19 -26 22 -36 3 -11 15 -29 27 -41
22 -25 49 -71 108 -187 22 -44 46 -89 53 -100 29 -46 42 -71 44 -81 3 -18 65
-155 96 -213 16 -29 27 -55 26 -57 -7 -6 -83 -7 -113 -1 -65 13 -368 37 -476
37 -61 0 -101 4 -111 13 -25 19 -108 154 -108 174 0 11 -4 23 -9 29 -5 5 -11
20 -13 34 -3 24 -19 36 -98 69 -60 25 -139 49 -145 43 -3 -4 -10 -1 -14 6 -4
7 -19 14 -32 16 -24 2 -127 31 -164 46 -46 18 -128 40 -133 35 -3 -3 -11 0
-19 6 -7 6 -13 9 -13 7 0 -5 -64 9 -135 28 -11 3 -29 7 -40 10 -11 2 -51 11
-90 19 -38 9 -83 18 -100 19 -60 6 -130 18 -145 24 -8 3 -22 6 -30 8 -8 1 -71
11 -140 23 -69 11 -159 23 -200 26 -40 4 -77 8 -80 10 -4 2 -42 5 -86 6 -43 1
-83 4 -89 8 -5 3 -19 6 -30 7 -92 6 -193 16 -208 20 -10 3 -66 7 -125 9 -59 3
-139 7 -178 10 -49 5 -74 3 -79 -5 -5 -8 -10 -8 -21 1 -8 6 -24 9 -35 6 -12
-3 -44 -1 -71 5 -39 9 -54 9 -70 -1 -13 -8 -23 -9 -32 -2 -16 14 -736 14 -752
0 -9 -7 -19 -6 -32 2 -16 10 -31 10 -70 1 -27 -6 -59 -8 -71 -5 -11 3 -27 0
-35 -6 -11 -9 -16 -9 -21 -1 -5 8 -30 10 -79 5 -39 -3 -119 -7 -178 -10 -59
-2 -115 -6 -125 -9 -15 -4 -116 -14 -208 -20 -11 -1 -24 -4 -30 -7 -5 -4 -46
-7 -89 -8 -44 -1 -82 -4 -86 -6 -3 -2 -40 -6 -80 -10 -41 -3 -131 -15 -200
-26 -69 -12 -132 -22 -140 -23 -8 -2 -22 -5 -30 -8 -15 -6 -85 -18 -145 -24
-16 -1 -61 -10 -100 -19 -38 -8 -79 -17 -90 -19 -11 -3 -29 -7 -40 -10 -71
-19 -135 -33 -135 -28 0 2 -6 -1 -13 -7 -8 -6 -16 -9 -19 -6 -5 5 -87 -17
-133 -35 -37 -15 -140 -44 -164 -46 -13 -2 -28 -9 -32 -16 -4 -7 -11 -10 -14
-6 -6 6 -85 -18 -145 -43 -79 -33 -95 -45 -98 -69 -2 -14 -8 -29 -13 -34 -5
-6 -9 -18 -9 -27 0 -9 -11 -36 -25 -61 -13 -24 -36 -74 -50 -112 -14 -38 -39
-97 -55 -132 -17 -35 -30 -69 -30 -77 0 -7 -3 -17 -7 -21 -13 -12 -42 -99 -37
-108 3 -4 0 -8 -5 -8 -6 0 -11 -7 -11 -15 0 -15 -21 -68 -46 -117 -8 -14 -11
-33 -8 -42 3 -9 1 -16 -4 -16 -6 0 -14 -10 -17 -22 -11 -36 -55 -151 -65 -170
-23 -42 -71 -179 -65 -188 3 -6 -1 -13 -9 -16 -8 -3 -20 -30 -28 -62 -6 -32
-18 -63 -26 -71 -7 -8 -11 -22 -9 -32 3 -11 2 -19 -3 -19 -8 0 -30 -46 -33
-71 -2 -8 -5 -18 -8 -24 -4 -5 -21 -57 -39 -115 -18 -58 -47 -148 -65 -200
-74 -215 -95 -287 -95 -317 0 -18 -4 -33 -10 -33 -5 0 -10 -10 -10 -23 0 -13
-4 -27 -8 -32 -10 -11 -34 -115 -37 -158 -1 -16 -7 -32 -12 -35 -6 -4 -22 -52
-37 -107 -14 -55 -39 -149 -55 -210 -16 -60 -26 -115 -24 -122 3 -7 1 -13 -5
-13 -6 0 -13 -19 -17 -42 -3 -24 -13 -58 -21 -76 -8 -18 -12 -37 -9 -43 4 -5
2 -15 -3 -22 -6 -7 -13 -25 -16 -42 -3 -16 -12 -55 -20 -85 -9 -30 -16 -69
-16 -87 0 -17 -4 -35 -10 -38 -5 -3 -10 -21 -10 -40 0 -19 -4 -37 -10 -40 -5
-3 -9 -16 -9 -28 0 -12 -5 -40 -11 -62 -6 -22 -11 -49 -11 -60 0 -10 -4 -24
-8 -30 -5 -5 -11 -28 -15 -50 -3 -22 -9 -51 -12 -65 -3 -14 -7 -36 -9 -50 -4
-29 -23 -112 -36 -156 -5 -17 -9 -41 -9 -53 0 -12 -7 -29 -15 -37 -26 -26 -8
-39 58 -42 90 -3 160 -13 174 -24 7 -5 13 -5 17 0 3 5 38 7 78 5 40 -3 227 -6
416 -8 189 -1 346 -5 349 -9 3 -3 11 -2 17 3 6 5 69 12 139 16 l128 6 29 -31
c17 -18 31 -43 31 -56 1 -13 3 -28 4 -34 1 -5 3 -19 4 -30 1 -17 6 -19 38 -15
83 11 242 24 304 25 36 0 69 3 73 7 4 4 33 8 64 9 63 1 251 12 322 20 25 2 96
7 159 10 63 3 124 10 136 14 12 5 28 5 35 0 7 -4 40 -6 74 -4 33 2 88 6 121 8
33 2 60 4 60 5 0 3 340 12 419 11 38 0 75 5 82 10 8 8 14 8 19 0 4 -7 36 -9
93 -5 135 8 471 15 762 15 291 0 627 -7 762 -15 57 -4 89 -2 93 5 5 8 11 8 19
0 7 -5 44 -10 82 -10 79 1 419 -8 419 -11 0 -1 27 -3 60 -5 33 -2 88 -6 121
-8 34 -2 67 0 74 4 7 5 23 5 35 0 12 -4 73 -11 136 -14 63 -3 134 -8 159 -10
71 -8 259 -19 322 -20 31 -1 60 -5 64 -9 4 -4 37 -7 73 -7 62 -1 221 -14 304
-25 32 -4 37 -2 38 15 1 11 3 25 4 30 1 6 3 21 4 34 0 13 14 38 31 56 l29 31
128 -6 c70 -4 133 -11 139 -16 6 -5 14 -6 17 -3 3 4 160 8 349 9 189 2 376 5
416 8 40 2 75 0 78 -5 4 -5 10 -5 17 0 14 11 84 21 174 24 66 3 84 16 58 42
-8 8 -15 25 -15 37 0 12 -4 36 -9 53 -13 44 -32 127 -36 156 -2 14 -6 36 -9
50 -3 14 -9 43 -12 65 -4 22 -10 45 -15 50 -4 6 -8 20 -8 30 0 11 -5 38 -11
60 -6 22 -11 50 -11 62 0 12 -4 25 -9 28 -6 3 -10 21 -10 40 0 19 -4 37 -10
40 -5 3 -10 21 -10 38 0 18 -7 57 -16 87 -8 30 -17 69 -20 85 -3 17 -10 35
-16 42 -5 7 -7 17 -3 22 3 6 -1 25 -9 43 -8 18 -18 52 -21 76 -4 23 -11 42
-17 42 -6 0 -8 6 -5 13 2 7 -8 62 -24 122 -16 61 -41 155 -55 210 -15 55 -31
103 -37 107 -5 3 -11 19 -12 35 -3 43 -27 147 -37 158 -4 5 -8 19 -8 32 0 13
-4 23 -10 23 -5 0 -10 15 -10 33 0 30 -21 102 -95 317 -18 52 -47 142 -65 200
-18 58 -35 110 -39 115 -3 6 -6 16 -8 24 -3 25 -25 71 -33 71 -5 0 -6 8 -3 19
2 10 -2 24 -9 32 -8 8 -20 39 -26 71 -8 32 -20 59 -28 62 -8 3 -12 10 -9 16 6
9 -42 146 -65 188 -10 19 -54 134 -65 170 -3 12 -11 22 -17 22 -5 0 -7 7 -4
16 3 9 0 28 -8 42 -25 49 -46 102 -46 117 0 8 -4 15 -9 15 -5 0 -8 6 -8 13 3
27 -25 97 -41 106 -10 5 -96 12 -192 15 -96 3 -184 7 -194 9 -25 5 -30 20 -16
47 11 20 17 21 93 16 45 -3 165 -8 267 -11 102 -4 194 -8 205 -10 11 -2 66 -7
123 -10 57 -4 113 -8 125 -10 12 -2 58 -6 102 -10 78 -7 247 -29 293 -39 44
-10 53 1 37 41 -8 20 -17 45 -19 57 -5 21 -70 215 -86 251 -4 11 -19 45 -33
75 -13 30 -27 71 -31 91 -4 21 -15 48 -26 62 -11 14 -20 34 -20 44 0 10 -4 23
-8 29 -5 5 -14 28 -21 52 -6 23 -16 42 -21 42 -6 0 -10 11 -10 24 0 14 -4 27
-9 30 -5 3 -12 22 -15 41 -4 20 -14 39 -22 42 -8 3 -13 11 -10 18 2 7 -4 26
-15 43 -10 18 -21 56 -24 86 -3 30 -9 65 -14 78 -20 55 32 103 124 114 83 10
268 4 360 -13 36 -6 75 -5 83 2 1 1 -8 18 -20 37 -19 29 -34 38 -85 51 -34 10
-77 17 -97 17 -19 0 -38 5 -41 10 -3 6 -21 10 -38 10 -59 0 -218 39 -268 64
-27 14 -55 26 -64 26 -8 0 -15 3 -15 8 0 4 -21 18 -47 32 -27 13 -64 35 -83
49 -62 43 -266 259 -279 294 -2 6 -14 20 -27 32 -13 12 -24 25 -24 28 0 3 -11
18 -25 33 -14 15 -39 48 -55 73 -16 25 -33 51 -37 56 -5 6 -15 22 -23 37 -26
43 -93 142 -106 155 -7 7 -27 42 -45 78 -34 65 -47 79 -67 66z m-2510 -1915
c68 -3 193 -8 278 -11 85 -3 161 -8 169 -11 13 -4 90 -12 191 -19 115 -7 286
-26 320 -35 19 -5 107 -18 195 -30 88 -12 169 -25 180 -30 11 -5 63 -16 115
-25 136 -22 281 -56 478 -110 51 -14 97 -23 102 -20 5 3 12 1 15 -5 4 -6 15
-8 26 -5 10 4 19 2 19 -3 0 -6 23 -15 50 -21 57 -12 110 -47 110 -71 0 -10 10
-32 23 -51 12 -19 35 -67 51 -107 16 -40 33 -75 38 -78 4 -3 8 -12 8 -20 0 -8
11 -37 25 -66 14 -28 25 -60 25 -69 0 -10 5 -21 10 -24 6 -3 10 -15 10 -26 0
-10 9 -28 19 -38 11 -11 22 -34 25 -52 2 -18 8 -35 13 -38 4 -3 9 -15 10 -26
2 -27 27 -93 41 -107 6 -6 8 -16 6 -22 -3 -7 3 -30 13 -52 9 -21 18 -46 19
-54 5 -32 36 -145 52 -190 3 -8 6 -17 6 -20 1 -3 4 -9 7 -15 3 -5 12 -38 19
-73 7 -34 17 -65 21 -68 5 -3 6 -16 3 -30 -4 -16 -1 -26 9 -30 9 -3 13 -12 10
-20 -3 -8 0 -21 7 -29 6 -8 9 -19 5 -24 -8 -14 26 -161 38 -161 4 0 6 -4 3 -9
-3 -5 1 -29 8 -55 8 -25 12 -46 9 -46 -2 0 -1 -5 3 -12 4 -7 9 -24 10 -38 2
-14 8 -43 14 -65 14 -48 27 -100 35 -137 3 -16 12 -28 20 -28 12 0 13 -4 4
-19 -7 -11 -9 -26 -4 -37 4 -11 9 -34 12 -51 2 -18 8 -54 14 -80 6 -27 14 -77
19 -112 5 -35 14 -69 20 -76 5 -6 7 -14 4 -17 -3 -3 0 -24 6 -47 6 -23 13 -71
15 -109 3 -64 39 -337 44 -337 1 0 3 -41 6 -92 l4 -91 -63 2 c-35 2 -68 6 -73
9 -5 3 -32 9 -59 12 -27 3 -79 10 -116 15 -37 6 -71 9 -75 8 -5 -1 -24 1 -43
5 -78 13 -220 28 -310 32 -114 4 -239 15 -262 21 -9 3 -19 0 -23 -6 -5 -8 -11
-7 -21 1 -9 8 -59 13 -132 15 -64 2 -139 5 -167 9 -27 3 -111 8 -185 11 -74 2
-166 7 -205 10 -146 10 -1377 15 -1406 5 -18 -6 -29 -6 -29 0 0 5 -31 9 -70 9
-38 0 -70 -4 -70 -9 0 -6 -11 -6 -29 0 -29 10 -1260 5 -1406 -5 -38 -3 -131
-8 -205 -10 -74 -3 -157 -8 -185 -11 -27 -4 -103 -7 -167 -9 -73 -2 -123 -7
-132 -15 -10 -8 -16 -9 -21 -1 -4 6 -14 9 -23 6 -23 -6 -148 -17 -262 -21 -90
-4 -232 -19 -310 -32 -19 -4 -38 -6 -43 -5 -4 1 -38 -2 -75 -8 -37 -5 -89 -12
-116 -15 -27 -3 -54 -9 -59 -12 -5 -3 -38 -7 -73 -9 l-63 -2 4 91 c3 51 5 92
6 92 5 0 41 273 44 337 2 38 9 86 15 109 6 23 9 44 6 47 -3 3 -1 11 4 17 6 7
15 41 20 76 5 35 13 85 19 112 6 26 12 62 14 80 3 17 8 40 12 51 5 11 3 26 -4
37 -9 15 -8 19 4 19 8 0 17 12 20 28 7 30 21 87 36 142 6 19 12 49 14 65 2 17
4 31 4 33 1 1 2 5 3 10 1 4 7 27 15 51 7 24 10 47 7 52 -3 5 -1 9 3 9 12 0 46
147 38 161 -4 5 -1 16 5 24 7 8 10 21 7 29 -3 8 1 17 10 20 10 4 13 14 9 30
-3 14 -2 27 3 30 4 3 14 34 21 68 7 35 16 68 19 73 3 6 6 12 7 15 0 3 3 12 6
20 16 45 47 158 52 190 1 8 10 33 19 54 10 22 16 45 13 52 -2 6 0 16 6 22 14
14 39 80 41 107 1 11 6 23 10 26 5 3 11 20 13 38 3 18 14 41 25 52 10 10 19
28 19 38 0 11 5 23 10 26 6 3 10 14 10 24 0 9 11 41 25 69 14 29 25 58 25 66
0 8 4 17 8 20 5 3 22 38 38 78 16 40 39 88 51 107 13 19 23 41 23 51 0 24 53
59 110 71 27 6 50 15 50 21 0 5 9 7 19 3 11 -3 22 -1 26 5 3 6 10 8 15 5 5 -3
51 6 102 20 197 54 342 88 478 110 52 9 104 20 115 25 11 5 92 18 180 30 88
12 176 25 195 30 35 9 209 28 325 35 88 6 161 14 187 19 13 3 86 8 163 11 272
10 440 17 442 18 2 3 166 -1 305 -7z"/>
<path d="M7110 9633 c-399 -39 -757 -233 -1005 -543 -63 -78 -161 -230 -186
-285 -10 -23 -21 -44 -25 -48 -16 -16 -10 -46 10 -51 20 -5 57 19 53 34 -3 11
46 90 55 90 5 0 8 6 8 13 0 7 16 36 35 66 19 29 35 55 35 57 0 2 8 12 18 22 9
10 37 40 60 66 32 34 49 45 62 41 13 -4 43 12 94 50 41 30 79 55 84 55 5 0 17
-9 27 -20 10 -11 41 -34 69 -52 28 -18 53 -36 54 -40 2 -5 9 -8 17 -8 21 0 35
-26 41 -75 2 -26 6 -51 9 -55 2 -4 -11 -31 -30 -61 -41 -63 -43 -91 -10 -134
l24 -33 -19 -38 c-22 -41 -26 -84 -10 -100 14 -14 19 -56 8 -77 -7 -13 -15
-78 -18 -149 0 -4 -14 -15 -32 -24 -17 -9 -36 -20 -42 -25 -6 -5 -25 -20 -41
-33 -45 -35 -102 -56 -155 -56 -39 0 -58 7 -106 40 -82 56 -99 54 -200 -27
-41 -33 -42 -33 -79 -18 -47 20 -91 16 -89 -7 1 -10 -2 -15 -7 -12 -12 7 -11
-12 6 -136 23 -174 81 -347 169 -504 36 -65 64 -83 58 -36 -6 41 8 71 41 87
67 31 100 52 146 94 27 24 55 49 64 54 8 6 44 32 80 60 l66 49 83 -2 c80 -3
191 -8 214 -11 7 0 39 -39 72 -84 115 -158 210 -265 247 -277 19 -6 43 -9 52
-6 22 6 201 20 268 20 65 0 175 -25 175 -40 0 -6 19 -29 43 -50 24 -22 66 -64
94 -95 l51 -57 -26 -52 c-19 -39 -23 -56 -15 -69 21 -34 53 -98 53 -106 0 -3
-9 -1 -19 5 -17 9 -30 0 -90 -60 -66 -66 -101 -84 -116 -60 -4 6 -10 8 -15 5
-13 -8 -40 8 -80 45 -45 42 -89 59 -174 66 -39 4 -80 12 -91 17 -11 6 -25 10
-32 9 -7 -2 -31 9 -54 24 -51 32 -69 29 -187 -27 -80 -37 -91 -40 -142 -34
-51 7 -150 38 -210 67 -33 17 -154 90 -160 99 -12 15 -50 28 -64 23 -16 -6
-17 -29 -3 -51 8 -13 103 -77 172 -116 268 -150 462 -201 750 -201 188 1 300
19 470 75 391 131 732 462 869 847 71 199 105 461 76 587 -5 22 -11 60 -14 85
-8 64 -42 152 -68 173 -19 16 -23 16 -36 3 -13 -13 -12 -22 11 -80 15 -36 28
-84 29 -107 l3 -43 -64 -2 -65 -2 -70 66 c-39 37 -104 99 -144 137 -41 39 -82
77 -91 86 -50 48 -115 56 -220 29 -30 -8 -40 -5 -92 30 -64 44 -65 46 -74 145
-4 39 -11 88 -15 110 -5 22 -12 60 -15 85 -13 90 -46 101 -156 48 -99 -47
-112 -44 -152 35 -24 48 -30 93 -26 177 5 114 -1 149 -39 222 -6 13 117 -2
203 -24 99 -26 236 -83 300 -127 43 -29 51 -31 72 -20 13 7 23 16 23 20 0 30
-218 146 -339 179 -164 46 -370 67 -511 53z"/>
<path d="M7147 5349 c-26 -10 -47 -16 -47 -13 0 4 -6 2 -12 -4 -7 -5 -38 -17
-68 -26 -30 -9 -76 -26 -102 -38 l-47 -22 4 -181 c2 -99 6 -234 9 -300 3 -66
7 -152 8 -192 l3 -72 -30 -5 c-16 -3 -84 -5 -150 -6 -66 -1 -136 -3 -155 -5
-57 -6 -613 -6 -765 0 -414 16 -542 28 -682 60 -44 10 -68 14 -121 21 -29 4
-55 11 -58 15 -3 5 -27 11 -55 15 -27 4 -52 11 -55 15 -3 5 -18 9 -34 9 -16 0
-32 5 -35 10 -3 6 -14 10 -23 10 -9 0 -30 7 -46 15 -15 8 -32 15 -37 15 -5 0
-46 18 -93 40 -46 22 -89 40 -95 40 -6 0 -11 4 -11 9 0 5 -12 12 -26 15 -15 4
-42 18 -60 32 -36 28 -53 27 -97 -9 -27 -21 -28 -24 -15 -52 15 -35 32 -55 47
-55 6 0 11 -4 11 -10 0 -5 7 -10 16 -10 8 0 21 -6 28 -12 36 -35 83 -65 134
-84 89 -34 164 -67 205 -91 21 -13 45 -23 53 -23 8 0 14 -4 14 -9 0 -5 12 -14
28 -20 15 -6 43 -20 62 -30 28 -15 65 -20 185 -25 83 -4 188 -9 235 -12 481
-30 579 -32 1020 -28 507 6 602 5 609 -2 3 -3 6 -31 7 -62 1 -31 3 -57 3 -57
1 0 3 -60 6 -133 4 -129 5 -134 36 -180 18 -26 46 -63 63 -83 17 -19 71 -90
120 -157 54 -75 95 -122 106 -122 11 0 52 47 106 122 49 67 103 138 120 157
17 20 45 57 63 83 31 46 32 51 36 180 3 73 5 133 6 133 0 0 2 26 3 57 1 31 4
59 7 62 7 7 102 8 609 2 441 -4 539 -2 1020 28 47 3 153 8 235 12 120 5 157
10 185 25 19 10 47 24 63 30 15 6 27 15 27 20 0 5 6 9 14 9 8 0 32 10 53 23
41 24 116 57 205 91 51 19 98 49 134 84 7 6 20 12 28 12 9 0 16 5 16 10 0 6 5
10 11 10 15 0 32 20 47 55 13 28 12 31 -15 52 -44 36 -61 37 -97 9 -18 -14
-45 -28 -60 -32 -14 -3 -26 -10 -26 -15 0 -5 -5 -9 -11 -9 -6 0 -49 -18 -95
-40 -47 -22 -88 -40 -93 -40 -5 0 -22 -7 -37 -15 -16 -8 -37 -15 -46 -15 -9 0
-20 -4 -23 -10 -3 -5 -19 -10 -35 -10 -16 0 -31 -4 -34 -9 -3 -4 -28 -11 -55
-15 -28 -4 -52 -10 -55 -15 -3 -4 -29 -11 -58 -15 -53 -7 -77 -11 -120 -21
-141 -32 -269 -44 -683 -60 -152 -6 -708 -6 -765 0 -19 2 -89 4 -155 5 -66 1
-133 3 -150 6 l-30 5 3 72 c1 40 5 126 8 192 3 66 7 201 9 300 l4 181 -47 22
c-26 12 -72 29 -102 38 -30 9 -61 21 -67 26 -7 6 -13 8 -13 4 0 -3 -21 3 -47
13 -61 23 -126 23 -186 0z"/>
</g>
</svg>
